<svg id="Capa_1" enable-background="new 0 0 512 512" height="512" viewBox="0 0 512 512" width="512" xmlns="http://www.w3.org/2000/svg"><g><g><path clip-rule="evenodd" d="m17.495 181.323v317.052c0 3.361 2.762 6.125 6.122 6.125h347.807c3.36 0 6.122-2.763 6.122-6.125v-36.89l-312.468-411h-41.461c-3.36 0-6.122 2.763-6.122 6.153z" fill="#cecece" fill-rule="evenodd"/></g><g><path clip-rule="evenodd" d="m65.078 50.486v404.875c0 3.361 2.762 6.125 6.122 6.125h97.559 208.786 41.461c3.36 0 6.122-2.763 6.122-6.125 0-210.4 0-142.431 0-371.632v-3.817c0-.57-.085-.969-.285-1.367h-49.603c-13.555 0-24.632-11.081-24.632-24.612l.057-46.119c-.484-.228-.968-.313-1.595-.313h-4.585-273.284c-3.36 0-6.122 2.763-6.122 6.125v36.86z" fill="#f9f7f7" fill-rule="evenodd"/></g><g><path clip-rule="evenodd" d="m282.949 7.5c47.042 48.484 77.654 127.562 77.654 216.866 0 19.342-1.424 38.2-4.158 56.374-.883 5.84-1.879 11.594-3.018 17.291-1.395 6.865-2.933 13.588-4.67 20.225-16.26 61.958-48.153 112.977-88.817 143.229h117.606 41.461c3.36 0 6.122-2.763 6.122-6.125v-68.652-90.9-212.079-3.817c0-.57-.085-.969-.285-1.367l-74.18-70.731c-.484-.228-.968-.313-1.595-.313h-4.585-61.535z" fill="#e2e2e2" fill-rule="evenodd"/></g><g><path clip-rule="evenodd" d="m350.665 7.813-.057 46.119c0 13.531 11.077 24.612 24.632 24.612h49.605c-.399-.826-1.338-1.538-3.189-3.333l-67.061-63.951c-2.079-1.994-3.019-2.991-3.93-3.447z" fill="#cecece" fill-rule="evenodd"/></g><g><path clip-rule="evenodd" d="m151.703 100.365c42.629-48.427 116.439-53.127 164.848-10.454 48.438 42.644 53.108 116.48 10.479 164.907-42.657 48.455-116.467 53.127-164.876 10.483-48.41-42.673-53.109-116.509-10.451-164.936z" fill="#62dbfb" fill-rule="evenodd"/></g><g><path clip-rule="evenodd" d="m350.608 301.222 25.401-28.857c5.41-6.153 14.865-6.751 20.987-1.339l92.49 81.471c6.122 5.412 6.72 14.87 1.31 20.994l-25.401 28.857c-5.41 6.153-14.836 6.751-20.987 1.339l-92.462-81.471c-6.151-5.412-6.749-14.841-1.338-20.994z" fill="#fe9737" fill-rule="evenodd"/></g><g><path clip-rule="evenodd" d="m379.853 290.483 45.277 39.881 47.213 41.59c6.122 5.412 6.72 14.841 1.367 20.966l12.871-14.613 4.214-4.814c5.41-6.125 4.812-15.582-1.31-20.994l-2.905-2.564-61.45-54.125-28.134-24.783c-6.122-5.412-15.576-4.814-20.987 1.339l-12.7 14.414-4.442 5.042c5.409-6.125 14.863-6.723 20.986-1.339z" fill="#f36b37" fill-rule="evenodd"/></g><g><path clip-rule="evenodd" d="m40.475 50.486v428.946c0 3.361 2.762 6.125 6.122 6.125h97.559 233.39v-24.071h-117.606-91.18-97.559c-3.36 0-6.122-2.763-6.122-6.125v-404.875z" fill="#b5adb6" fill-rule="evenodd"/></g><g><path clip-rule="evenodd" d="m327.03 254.818c42.629-48.427 37.959-122.263-10.479-164.907-26.426-23.302-60.455-32.474-92.832-28.116 21.329 3.276 41.974 12.477 59.373 27.803 48.409 42.644 53.108 116.48 10.451 164.936-13.555 15.411-30.299 26.407-48.381 32.845-7.689 2.735-15.605 4.643-23.635 5.726 9.483 1.453 19.107 1.738 28.647.855 28.617-2.651 56.353-15.84 76.856-39.142z" fill="#00c0fa" fill-rule="evenodd"/></g><g><path d="m172.006 402.841h131.702c4.143 0 7.5-3.358 7.5-7.5s-3.357-7.5-7.5-7.5h-131.702c-4.143 0-7.5 3.358-7.5 7.5s3.357 7.5 7.5 7.5z"/><path d="m172.006 357.975h131.702c4.143 0 7.5-3.358 7.5-7.5s-3.357-7.5-7.5-7.5h-131.702c-4.143 0-7.5 3.358-7.5 7.5s3.357 7.5 7.5 7.5z"/><path d="m222.751 205.044h-17.229c-12.998 0-18.919-13.094-18.919-25.259 0-6.972 1.904-13.642 5.226-18.299 3.387-4.751 7.994-7.16 13.693-7.16h14.238c4.143 0 7.5-3.358 7.5-7.5s-3.357-7.5-7.5-7.5h-14.238c-10.521 0-19.723 4.777-25.907 13.452-5.166 7.246-8.012 16.837-8.012 27.007 0 20.006 11.651 40.259 33.919 40.259h17.229c4.143 0 7.5-3.358 7.5-7.5s-3.358-7.5-7.5-7.5z"/><path d="m297.453 139.741c-3.917-1.359-8.187.713-9.545 4.627l-17.048 49.129-17.047-49.129c-1.358-3.913-5.628-5.983-9.545-4.627-3.913 1.358-5.984 5.631-4.627 9.544l22.211 64.009c.048.137.099.272.154.405 1.602 3.875 4.952 6.312 8.746 6.357.037 0 .075.001.112.001 3.787 0 7.063-2.308 8.778-6.192.083-.188.158-.378.226-.572l22.211-64.009c1.358-3.912-.713-8.185-4.626-9.543z"/><path d="m494.442 346.869-61.813-54.448v-92.781c0-4.142-3.357-7.5-7.5-7.5s-7.5 3.358-7.5 7.5v79.568l-15.667-13.801c-4.463-3.945-10.218-5.909-16.188-5.534-5.986.376-11.455 3.054-15.396 7.537l-7.735 8.788-25.204-22.205c40.086-51.427 33.633-126.075-15.929-169.708-24.915-21.962-56.888-32.9-90.026-30.794-33.135 2.104-63.467 16.991-85.41 41.919l.002-.002c-45.31 51.438-40.321 130.175 11.12 175.521 22.896 20.169 51.744 31.034 81.981 31.034 2.671 0 5.357-.085 8.047-.256 30.634-1.945 58.87-14.823 80.306-36.453l25.203 22.204-7.754 8.809c-.001.001-.001.002-.002.002-8.147 9.264-7.243 23.43 2.012 31.575l70.642 62.245v63.898h-345.053v-438.987h270.578l-.048 38.933c0 17.707 14.414 32.112 32.132 32.112h42.39v78.813c0 4.142 3.357 7.5 7.5 7.5s7.5-3.358 7.5-7.5v-84.946c0-.283-.01-.557-.027-.824.013-.18.027-.36.027-.543 0-2.375-1.107-4.488-2.829-5.862-.537-.591-1.094-1.117-1.618-1.609-.362-.34-.785-.737-1.278-1.22-.024-.023-.048-.047-.072-.07l-67.058-63.947-1.007-.968c-1.206-1.165-2.39-2.29-3.771-3.17-.667-.474-1.414-.841-2.218-1.077-1.079-.381-2.282-.622-3.709-.622h-277.869c-7.512 0-13.623 6.112-13.623 13.625v29.361h-33.961c-7.511 0-13.622 6.125-13.622 13.653v191.115c0 4.142 3.357 7.5 7.5 7.5s7.5-3.358 7.5-7.5v-189.768h32.583v397.375c0 7.513 6.111 13.625 13.623 13.625h298.846v28.014h-344.743c-.133-.287-.237-.587-.253-.763l-.057-213.675c-.001-4.142-3.359-7.499-7.502-7.498s-7.499 3.36-7.498 7.502l.057 213.673c0 6.582 5.161 15.761 13.565 15.761h347.807c7.512 0 13.623-6.112 13.623-13.625v-29.39h33.961c7.511 0 13.622-6.112 13.622-13.625v-52.056l6.823 6.012c4.113 3.619 9.301 5.569 14.744 5.569.484 0 .971-.016 1.459-.046 5.972-.38 11.431-3.058 15.369-7.536l25.392-28.847c8.163-9.239 7.282-23.406-1.974-31.587zm-248.169-60.133c-29.141 1.85-57.251-7.761-79.161-27.062-45.237-39.877-49.625-109.119-9.781-154.352.001 0 .001-.001.002-.002 19.295-21.919 45.966-35.01 75.102-36.86 2.367-.15 4.724-.225 7.074-.225 26.587 0 51.956 9.56 72.086 27.304 45.243 39.832 49.645 109.055 9.813 154.314-.002.002-.004.004-.006.006s-.004.005-.006.007c-19.305 21.927-45.984 35.02-75.123 36.87zm160.147-215.691h-31.18c-9.446 0-17.132-7.677-17.132-17.103l.036-28.941zm78.746 297.491-25.402 28.859c-1.293 1.47-3.091 2.349-5.062 2.475-1.975.129-3.868-.519-5.336-1.81l-92.465-81.474c-3.051-2.685-3.348-7.353-.663-10.408l25.402-28.86c1.294-1.471 3.097-2.35 5.076-2.475 1.98-.118 3.856.517 5.321 1.811l92.48 81.462c2.999 2.651 3.3 7.419.649 10.42z"/></g></g></svg>